<?xml version="1.0" standalone="no"?>
<!DOCTYPE svg PUBLIC "-//W3C//DTD SVG 20010904//EN"
 "http://www.w3.org/TR/2001/REC-SVG-20010904/DTD/svg10.dtd">
<svg version="1.0" xmlns="http://www.w3.org/2000/svg"
 width="1024.000000pt" height="1024.000000pt" viewBox="0 0 1024.000000 1024.000000"
 preserveAspectRatio="xMidYMid meet">

<g transform="translate(0.000000,1024.000000) scale(0.100000,-0.100000)"
fill="#000000" stroke="none">
<path d="M0 5120 l0 -5120 5120 0 5120 0 0 5120 0 5120 -5120 0 -5120 0 0
-5120z m7499 4274 c60 -66 416 -902 663 -1554 237 -626 405 -1154 529 -1670
71 -294 72 -317 28 -615 -129 -888 -430 -1913 -929 -3160 -193 -483 -454
-1062 -504 -1122 -146 -170 -554 -165 -919 11 -247 119 -462 315 -512 466 -36
107 -31 124 141 522 444 1032 749 1856 949 2572 36 129 98 382 150 611 l28
120 66 62 c36 35 83 75 104 90 36 25 41 26 65 12 20 -11 28 -24 30 -50 3 -34
-1 -39 -65 -87 -38 -28 -77 -59 -86 -70 -10 -11 -32 -84 -52 -171 -115 -501
-249 -960 -420 -1436 l-46 -130 74 -70 c155 -145 471 -289 792 -361 101 -23
146 -27 277 -28 98 -1 161 3 167 10 33 32 273 807 380 1226 126 491 231 1071
231 1273 0 116 -99 523 -222 912 l-51 163 -41 -35 c-75 -64 -247 -175 -341
-220 -268 -129 -622 -195 -815 -154 -28 6 -53 9 -56 7 -4 -5 102 -362 116
-388 12 -22 83 -87 153 -138 58 -43 72 -73 45 -100 -38 -38 -136 14 -245 130
-48 51 -54 65 -93 189 -56 183 -232 716 -287 869 -145 404 -412 1036 -647
1533 -66 139 -69 172 -28 238 178 277 933 616 1291 578 43 -4 59 -11 80 -35z
m-4076 -1088 c233 -45 429 -192 530 -398 61 -125 81 -221 74 -357 -8 -168 -60
-301 -169 -438 -61 -78 -125 -125 -234 -173 -46 -20 -87 -40 -90 -42 -2 -3 51
-24 118 -48 180 -63 440 -176 717 -311 l243 -119 192 -19 c336 -35 552 -47
589 -33 20 7 81 12 153 11 111 -2 125 0 214 32 82 29 108 33 190 34 83 0 102
-4 155 -28 101 -47 173 -134 216 -258 18 -54 20 -80 17 -161 -4 -85 -9 -105
-41 -173 -115 -242 -397 -329 -596 -185 -22 17 -51 45 -63 64 l-22 33 -118 7
c-66 3 -129 11 -141 17 -15 9 -120 10 -387 6 -201 -3 -399 -2 -441 3 -113 13
-160 28 -592 193 -133 51 -115 57 -137 -48 -6 -27 -40 -138 -75 -245 -68 -207
-89 -284 -129 -473 -37 -168 -76 -448 -76 -540 0 -76 1 -78 56 -168 53 -85
165 -237 560 -759 203 -268 247 -332 285 -415 32 -72 63 -186 79 -300 7 -44
58 -321 115 -615 155 -802 158 -818 152 -881 -11 -120 -95 -236 -215 -292 -59
-28 -77 -32 -153 -32 -78 0 -91 3 -161 38 -80 39 -133 89 -169 160 -19 36
-179 734 -274 1195 -69 336 -86 374 -247 553 -135 151 -647 736 -676 773 -12
16 -24 27 -25 25 -2 -2 -25 -87 -50 -189 -125 -495 -239 -921 -263 -977 -14
-34 -96 -170 -182 -302 -87 -133 -229 -352 -316 -488 -289 -449 -426 -651
-463 -684 -21 -17 -67 -46 -103 -63 -59 -28 -74 -31 -160 -30 -104 0 -148 14
-227 72 -116 86 -171 263 -127 413 19 66 -4 26 402 708 184 310 341 582 349
604 8 23 25 177 38 351 73 932 130 1339 224 1610 12 33 21 64 21 70 0 6 -23
17 -51 23 -116 28 -234 125 -291 240 -32 65 -33 72 -33 188 0 103 5 138 34
249 58 229 221 685 287 805 92 168 211 280 382 358 102 47 223 71 411 79 l156
7 -81 81 c-141 141 -212 296 -221 481 -10 212 63 401 217 555 173 172 402 248
623 206z m2340 -1013 c20 -16 109 -95 199 -178 336 -309 340 -314 301 -357
-32 -36 -61 -23 -157 70 -50 49 -171 162 -268 251 -111 102 -178 170 -178 182
0 22 34 59 54 59 7 0 29 -12 49 -27z m871 -849 c43 -12 83 -28 87 -36 22 -34
3 -78 -34 -78 -33 0 -202 52 -220 68 -24 21 -18 54 13 69 26 13 33 12 154 -23z
m1094 -436 c26 -26 12 -60 -59 -139 -50 -56 -78 -79 -94 -79 -28 0 -55 24 -55
49 0 18 120 165 143 174 22 10 53 7 65 -5z m-940 -310 c7 -7 12 -24 12 -38 0
-22 -16 -37 -101 -95 -98 -66 -103 -68 -128 -54 -56 31 -36 65 89 153 65 45
106 56 128 34z m942 -137 c102 -71 126 -93 128 -115 4 -35 -13 -56 -46 -56
-26 0 -155 77 -229 137 -35 28 -43 41 -43 67 0 37 15 56 45 56 11 -1 76 -40
145 -89z m-241 -160 c10 -10 24 -47 31 -85 14 -76 6 -96 -41 -96 -36 0 -53 26
-69 103 -10 52 -10 61 6 78 22 24 49 24 73 0z m-1208 -131 c12 -7 19 -21 19
-39 0 -23 -15 -41 -73 -92 -41 -35 -156 -138 -256 -229 -101 -91 -193 -170
-205 -177 -34 -18 -71 4 -71 41 0 25 36 61 265 267 146 131 273 238 283 239
10 0 27 -5 38 -10z"/>
<path d="M7220 9315 c-238 -41 -556 -167 -759 -302 -94 -63 -225 -181 -247
-225 -13 -25 -13 -28 7 -39 32 -17 201 -13 294 6 298 61 632 236 867 454 58
53 71 84 46 109 -15 15 -110 14 -208 -3z"/>
<path d="M7399 9086 c-133 -113 -260 -195 -421 -276 -222 -110 -471 -180 -639
-180 -38 0 -69 -2 -69 -4 0 -3 36 -81 79 -175 172 -367 372 -847 554 -1331 85
-227 99 -266 137 -397 l21 -72 67 -22 c135 -44 379 -23 612 53 197 64 410 183
534 299 l59 55 -23 70 c-93 282 -335 924 -505 1344 -64 157 -290 683 -304 706
-3 7 -44 -21 -102 -70z"/>
<path d="M6670 3670 c0 -15 -135 -374 -236 -627 -85 -212 -298 -722 -424
-1012 -58 -133 -62 -148 -57 -197 3 -30 17 -75 33 -104 55 -102 250 -263 422
-349 144 -73 379 -131 526 -131 105 0 225 39 269 88 19 21 193 399 324 702 97
224 268 653 373 935 46 121 85 226 87 233 4 9 -18 12 -88 12 -262 0 -558 77
-866 225 -144 69 -194 101 -290 182 -65 55 -73 60 -73 43z"/>
<path d="M3120 8174 c-104 -35 -176 -82 -251 -162 -69 -73 -127 -172 -155
-267 -29 -95 -24 -249 9 -348 75 -216 247 -369 467 -413 211 -42 419 28 571
194 272 298 179 779 -187 965 -126 64 -319 77 -454 31z"/>
<path d="M2975 6920 c-19 -31 -83 -47 -211 -54 -167 -8 -305 -29 -380 -57
-116 -43 -223 -127 -299 -234 -61 -86 -83 -135 -168 -365 -188 -512 -233 -738
-173 -867 44 -94 133 -162 239 -182 64 -12 126 2 200 43 122 69 441 274 654
420 210 144 219 149 301 167 136 30 234 100 288 206 25 50 29 69 28 138 0 68
-4 89 -29 139 -55 111 -183 196 -294 196 -152 0 -247 -84 -321 -285 l-26 -70
-114 -79 c-63 -44 -209 -146 -324 -228 -115 -81 -217 -148 -226 -148 -9 0 -25
9 -35 20 -32 35 -13 62 102 148 l108 81 64 192 c75 223 99 259 145 213 24 -23
20 -50 -27 -188 -24 -69 -42 -126 -40 -126 2 0 61 41 132 90 121 86 128 93
146 143 66 187 168 295 315 333 135 34 274 -3 381 -103 91 -85 137 -172 154
-290 29 -211 -161 -442 -398 -486 -56 -10 -89 -29 -362 -212 -309 -207 -511
-332 -626 -387 l-66 -31 -47 -151 c-54 -176 -66 -231 -100 -461 -36 -241 -93
-814 -126 -1260 -14 -188 -32 -242 -147 -433 -338 -561 -609 -1024 -626 -1067
-24 -63 -20 -171 8 -230 45 -93 136 -145 249 -145 126 1 179 45 322 268 59 92
238 367 398 612 365 561 381 586 400 644 19 54 121 443 251 946 47 184 90 345
95 358 5 12 21 27 35 34 37 17 65 -12 65 -67 0 -38 8 -52 87 -146 118 -141
403 -465 569 -646 261 -283 274 -308 350 -678 90 -436 254 -1167 269 -1194 37
-73 123 -129 211 -138 76 -8 136 12 194 64 59 53 90 113 90 176 0 26 -43 268
-95 539 -53 271 -120 626 -150 788 -30 163 -61 314 -69 336 -33 95 -96 198
-228 372 -603 796 -670 889 -704 978 -16 42 -17 57 -5 163 37 342 123 733 225
1013 50 139 77 259 78 345 1 79 17 113 53 113 19 0 55 -35 55 -54 0 -15 -6
-12 205 -92 221 -83 401 -144 475 -160 49 -10 158 -14 441 -14 l376 0 11 153
c18 223 17 227 -14 227 -49 0 -629 50 -684 59 -38 6 -149 54 -357 155 -167 80
-421 194 -565 251 -145 58 -267 111 -273 119 -6 8 -46 15 -110 20 -118 8 -234
30 -294 57 -51 22 -48 22 -56 9z"/>
<path d="M5835 6321 c-33 -10 -73 -24 -90 -32 -17 -7 -85 -15 -160 -18 l-130
-6 -12 -135 c-17 -200 -16 -267 3 -274 27 -10 169 -7 181 5 6 6 26 9 44 7 32
-3 35 -7 46 -52 7 -26 14 -51 17 -53 3 -3 39 11 80 31 91 44 101 64 63 128
-14 24 -34 52 -46 62 -23 21 -28 65 -9 84 26 26 65 14 108 -35 78 -88 97 -161
61 -238 -24 -52 -57 -81 -104 -89 -53 -10 -36 -26 27 -26 86 0 143 26 212 94
82 82 108 148 102 261 -12 225 -185 350 -393 286z"/>
</g>
</svg>
